<svg viewBox="-8 -8 136 136" xmlns="http://www.w3.org/2000/svg" fill="none" stroke-width="12" stroke-linecap="round">
  <style>
    path { stroke: #0A0A0A; }
    @media (prefers-color-scheme: dark) { path { stroke: #FFFFFF; } }
  </style>
  <path d="M 60 83 A 32 32 0 0 1 11.14 77.79" transform="rotate(0 60 60)"/>
  <path d="M 60 83 A 32 32 0 0 1 11.14 77.79" transform="rotate(60 60 60)"/>
  <path d="M 60 83 A 32 32 0 0 1 11.14 77.79" transform="rotate(120 60 60)"/>
  <path d="M 60 83 A 32 32 0 0 1 11.14 77.79" transform="rotate(180 60 60)"/>
  <path d="M 60 83 A 32 32 0 0 1 11.14 77.79" transform="rotate(240 60 60)"/>
  <path d="M 60 83 A 32 32 0 0 1 11.14 77.79" transform="rotate(300 60 60)"/>
</svg>
